<?xml version="1.0" encoding="utf-8"?>
<!-- Generator: Adobe Illustrator 27.0.0, SVG Export Plug-In . SVG Version: 6.00 Build 0)  -->
<svg version="1.1" id="Layer_1" xmlns="http://www.w3.org/2000/svg" xmlns:xlink="http://www.w3.org/1999/xlink" x="0px" y="0px"
	 viewBox="0 0 512 512" style="enable-background:new 0 0 512 512;" xml:space="preserve">
<style type="text/css">
	.st0{fill:#BD9960;}
	.st1{fill-rule:evenodd;clip-rule:evenodd;fill:#E5E5E5;}
	.st2{fill:#E5E5E5;}
</style>
<path class="st0" d="M766.5,174.4c40.4,0,73.2-32.8,73.2-73.2S806.8,28,766.5,28s-73.3,32.8-73.3,73.2S726.1,174.4,766.5,174.4z
	 M766.5,69.8c17.3,0,31.4,14.1,31.4,31.4s-14.1,31.4-31.4,31.4s-31.4-14.1-31.4-31.4S749.2,69.8,766.5,69.8z M860.6,237.2
	c-17.3,0-31.4,14.1-31.4,31.4c0,6.9,2.2,13.4,6.3,18.8c6.9,9.2,5.1,22.3-4.2,29.3c-3.8,2.8-8.2,4.2-12.5,4.2
	c-6.4,0-12.6-2.9-16.7-8.3c-9.6-12.8-14.7-27.9-14.7-43.9c0-40.4,32.8-73.2,73.2-73.2c22.9,0,44.8,10.9,58.6,29.3
	c6.9,9.2,5.1,22.4-4.2,29.3s-22.3,5.1-29.3-4.2C879.7,241.7,870.5,237.1,860.6,237.2L860.6,237.2z M954.7,174.4
	c40.4,0,73.2-32.8,73.2-73.2S995.1,28,954.7,28s-73.2,32.8-73.2,73.2S914.3,174.4,954.7,174.4z M954.7,69.8
	c17.3,0,31.4,14.1,31.4,31.4s-14.1,31.4-31.4,31.4s-31.4-14.1-31.4-31.4S937.4,69.8,954.7,69.8z M1126.1,428.2l-20.4-11.8
	c3.5-10.4,5.8-21.3,5.8-32.9s-2.3-22.5-5.8-32.9l20.4-11.8c10-5.8,13.4-18.6,7.7-28.6c-5.8-10-18.6-13.5-28.6-7.7l-20.4,11.8
	c-14.7-16.6-34.4-28.8-57-33.3v-23c0-11.5-9.4-20.9-20.9-20.9S986,246.5,986,258v23c-22.6,4.6-42.2,16.8-57,33.3l-20.4-11.8
	c-10-5.8-22.8-2.4-28.6,7.7s-2.3,22.8,7.7,28.6l20.4,11.8c-3.5,10.4-5.8,21.3-5.8,32.9s2.3,22.5,5.8,32.9l-20.4,11.8
	c-10,5.8-13.4,18.6-7.7,28.6c3.9,6.7,10.9,10.5,18.1,10.5c3.5,0,7.1-0.9,10.4-2.8l20.4-11.8c14.7,16.6,34.4,28.8,57,33.3v23
	c0,11.5,9.4,20.9,20.9,20.9s20.9-9.4,20.9-20.9v-23c22.6-4.6,42.2-16.8,57-33.3l20.4,11.8c3.3,1.9,6.9,2.8,10.4,2.8
	c7.2,0,14.3-3.7,18.1-10.5C1139.6,446.8,1136.1,434,1126.1,428.2L1126.1,428.2z M1007,446.3c-34.6,0-62.7-28.2-62.7-62.7
	s28.2-62.7,62.7-62.7s62.7,28.2,62.7,62.7S1041.6,446.3,1007,446.3z M756,237.2c-34.6,0-62.7,28.2-62.7,62.7
	c0,11.5-9.4,20.9-20.9,20.9s-20.9-9.4-20.9-20.9c0-57.7,46.9-104.6,104.6-104.6c11.5,0,20.9,9.4,20.9,20.9S767.5,237.2,756,237.2z
	 M860.6,383.6c0,11.5-9.4,20.9-20.9,20.9c-34.6,0-62.7,28.2-62.7,62.7c0,11.5-9.4,20.9-20.9,20.9s-20.9-9.4-20.9-20.9
	c0-57.7,46.9-104.6,104.6-104.6C851.2,362.7,860.6,372,860.6,383.6z"/>
<g>
	<path class="st1" d="M-384.1,152.1c37,0,67-30,67-67s-30-67-67-67s-67,30-67,67S-421.1,152.1-384.1,152.1z M-384.1,107.4
		c12.3,0,22.3-10,22.3-22.3s-10-22.3-22.3-22.3s-22.3,10-22.3,22.3S-396.4,107.4-384.1,107.4z"/>
	<path class="st1" d="M-352.3,337c45.7-58.5,124.7-172.1,124.7-259.5c0-82.3-70-149-156.4-149s-156.4,66.7-156.4,149
		c0,87.3,78.9,201,124.7,259.5C-399.4,358-368.7,358-352.3,337z M-312.1,196.7c24.5-44.9,39.7-87,39.7-119.1
		c0-55.6-48-104.3-111.7-104.3S-495.8,22-495.8,77.6c0,32.1,15.2,74.2,39.7,119.1c22.6,41.4,50.4,80.4,72,108.4
		C-362.4,277-334.7,238.1-312.1,196.7z"/>
	<path class="st1" d="M-508.2,308.5c6.5-2.9,13.7-5.6,21.5-8c-7.9-12.6-15.8-25.8-23.5-39.3c-45.8,16.4-75.1,41.5-75.1,69.7
		c0,49.4,90.1,89.4,201.1,89.4c111.1,0,201.1-40,201.1-89.4c0-28.2-29.3-53.3-75.1-69.7c-7.7,13.5-15.6,26.6-23.5,39.3
		c7.8,2.5,15,5.1,21.5,8c14.8,6.6,24,13.2,28.9,18.4c1.7,1.8,2.7,3.2,3.1,4c-0.5,0.8-1.4,2.2-3.1,4c-4.9,5.1-14.1,11.8-28.9,18.4
		c-29.5,13.1-73.3,22.3-124.1,22.3s-94.6-9.2-124.1-22.3c-14.8-6.6-24-13.2-28.9-18.4c-1.7-1.8-2.7-3.2-3.1-4c0.5-0.8,1.4-2.2,3.1-4
		C-532.1,321.7-522.9,315.1-508.2,308.5z M-227.5,329.8c0,0,0,0.1-0.1,0.2C-227.5,329.9-227.5,329.8-227.5,329.8z M-540.7,329.8
		c0,0,0,0.1,0.1,0.2C-540.7,329.9-540.7,329.8-540.7,329.8z M-540.7,331.9c0,0,0-0.1,0.1-0.2C-540.6,331.8-540.7,331.9-540.7,331.9z
		 M-227.6,331.7c0.1,0.2,0.1,0.2,0.1,0.2S-227.5,331.8-227.6,331.7z"/>
</g>
<g>
	<g>
		<circle class="st2" cx="101.7" cy="72.1" r="61.3"/>
	</g>
</g>
<g>
	<g>
		<circle class="st2" cx="408.3" cy="72.1" r="61.3"/>
	</g>
</g>
<g>
	<g>
		<circle class="st2" cx="255" cy="72.1" r="61.3"/>
	</g>
</g>
<g>
	<g>
		<path class="st2" d="M346.9,331.2l-14-139.5c-1.6-15.8-14.7-27.6-30.5-27.6h-94.9c-15.8,0-28.9,11.9-30.5,27.6l-14,139.5
			c-0.4,4.3,1,8.6,3.9,11.8c2.9,3.2,7,5,11.3,5H195l12.6,125.7c1.6,15.7,14.7,27.6,30.5,27.6h33.6c15.8,0,28.9-11.9,30.5-27.6
			L314.9,348h16.8c4.4,0,8.5-1.8,11.4-5C346,339.8,347.4,335.5,346.9,331.2z"/>
	</g>
</g>
<g>
	<g>
		<path class="st2" d="M144.3,363.7c-8.8-9.8-13-22.7-11.7-35.5l14-139.5c0.9-8.7,4-16.4,8-23.6c-1.8-0.3-3.5-1-5.4-1H54.3
			c-15.8,0-28.9,11.9-30.5,27.6l-14,139.5c-0.4,4.3,1,8.6,3.9,11.8c2.9,3.2,7,5,11.3,5h16.8l12.6,95.1c1.6,15.7,14.7,27.6,30.5,27.6
			h33.6c15.8,0,28.9-11.9,30.5-27.6l9.2-69.5C153.1,371.1,148.2,368,144.3,363.7z"/>
	</g>
</g>
<g>
	<g>
		<path class="st2" d="M500.2,331.1l-14-139.4c-1.6-15.8-14.7-27.6-30.5-27.6h-94.9c-1.9,0-3.6,0.7-5.5,1c4,7.1,7.2,14.9,8,23.6
			l14,139.5c1.3,12.8-2.9,25.7-11.6,35.4c-4,4.4-8.9,7.5-14,10.1L361,443c1.6,15.7,14.7,27.6,30.5,27.6h33.6
			c15.8,0,28.9-11.9,30.5-27.6l12.6-95.1H485c4.4,0,8.5-1.8,11.4-5C499.3,339.7,500.7,335.4,500.2,331.1z"/>
	</g>
</g>
</svg>
