<?xml version="1.0" encoding="utf-8"?>
<!-- Generator: Adobe Illustrator 27.0.0, SVG Export Plug-In . SVG Version: 6.00 Build 0)  -->
<svg version="1.1" id="Layer_1" xmlns="http://www.w3.org/2000/svg" xmlns:xlink="http://www.w3.org/1999/xlink" x="0px" y="0px"
	 viewBox="0 0 184 138" style="enable-background:new 0 0 184 138;" xml:space="preserve">
<style type="text/css">
	.st0{fill-rule:evenodd;clip-rule:evenodd;fill:#E5E5E5;}
	.st1{opacity:0.4;fill:#838383;}
	.st2{fill:#BD9960;}
</style>
<g>
	<path class="st0" d="M-1147.6,1.6c37,0,67-30,67-67s-30-67-67-67s-67,30-67,67S-1184.6,1.6-1147.6,1.6z M-1147.6-43.1
		c12.3,0,22.3-10,22.3-22.3s-10-22.3-22.3-22.3c-12.3,0-22.3,10-22.3,22.3S-1159.9-43.1-1147.6-43.1z"/>
	<path class="st0" d="M-1115.8,186.5C-1070.1,128-991.1,14.4-991.1-73c0-82.3-70-149-156.4-149s-156.4,66.7-156.4,149
		c0,87.3,78.9,201,124.7,259.5C-1162.9,207.5-1132.2,207.5-1115.8,186.5z M-1075.6,46.2c24.5-44.9,39.7-87,39.7-119.1
		c0-55.6-48-104.3-111.7-104.3c-63.7,0-111.7,48.7-111.7,104.3c0,32.1,15.2,74.2,39.7,119.1c22.6,41.4,50.4,80.4,72,108.4
		C-1125.9,126.5-1098.2,87.6-1075.6,46.2z"/>
	<path class="st0" d="M-1271.7,158c6.5-2.9,13.7-5.6,21.5-8c-7.9-12.6-15.8-25.8-23.5-39.3c-45.8,16.4-75.1,41.5-75.1,69.7
		c0,49.4,90.1,89.4,201.1,89.4c111.1,0,201.1-40,201.1-89.4c0-28.2-29.3-53.3-75.1-69.7c-7.7,13.5-15.6,26.6-23.5,39.3
		c7.8,2.5,15,5.1,21.5,8c14.8,6.6,24,13.2,28.9,18.4c1.7,1.8,2.7,3.2,3.1,4c-0.5,0.8-1.4,2.2-3.1,4c-4.9,5.1-14.1,11.8-28.9,18.4
		c-29.5,13.1-73.3,22.3-124.1,22.3c-50.8,0-94.6-9.2-124.1-22.3c-14.8-6.6-24-13.2-28.9-18.4c-1.7-1.8-2.7-3.2-3.1-4
		c0.5-0.8,1.4-2.2,3.1-4C-1295.6,171.2-1286.4,164.6-1271.7,158z M-991,179.3c0,0,0,0.1-0.1,0.2C-991,179.4-991,179.3-991,179.3z
		 M-1304.2,179.3c0,0,0,0.1,0.1,0.2C-1304.2,179.4-1304.2,179.3-1304.2,179.3z M-1304.2,181.4c0,0,0-0.1,0.1-0.2
		C-1304.1,181.3-1304.2,181.4-1304.2,181.4z M-991.1,181.2c0.1,0.2,0.1,0.2,0.1,0.2S-991,181.3-991.1,181.2z"/>
</g>
<text transform="matrix(0.7172 0 0 1 -79.5009 -197.3222)"><tspan x="0" y="0" style="font-family:'MyriadPro-Regular'; font-size:38.4978px;">w: 287.2282 </tspan><tspan x="0" y="46.2" style="font-family:'MyriadPro-Regular'; font-size:38.4978px;">H: 297.2 px</tspan></text>
<g>
	<circle class="st1" cx="-507.5" cy="105.5" r="252.5"/>
	
		<image style="overflow:visible;" width="512" height="512" xlink:href="Icons/Managed.png"  transform="matrix(0.561 0 0 0.5805 -651.1141 -43.1)">
	</image>
</g>
<g>
	<g>
		<path class="st2" d="M102.6,21.4v42.3c0,8.8,7.1,15.9,15.9,15.9h25.9c-2.5,12.1-13.1,21.2-25.9,21.2c-8.8,0-15.9,7.1-15.9,15.9
			s7.1,15.9,15.9,15.9c32.1,0,58.2-26.1,58.2-58.2V21.4c0-8.8-7.1-15.9-15.9-15.9h-42.3C109.7,5.5,102.6,12.6,102.6,21.4z"/>
		<path class="st2" d="M23.2,79.6h25.9c-2.5,12.1-13.1,21.2-25.9,21.2c-8.8,0-15.9,7.1-15.9,15.9s7.1,15.9,15.9,15.9
			c32.1,0,58.2-26.1,58.2-58.2V21.4c0-8.8-7.1-15.9-15.9-15.9H23.2c-8.8,0-15.9,7.1-15.9,15.9v42.3C7.3,72.5,14.5,79.6,23.2,79.6z"
			/>
	</g>
</g>
</svg>
